<svg viewBox="0 0 256 256" fill="none" xmlns="http://www.w3.org/2000/svg" height="256" width="256">
  <mask id="a" maskUnits="userSpaceOnUse" x="63" y="91" width="131" height="65" fill="#000">
    <path fill="#fff" d="M63 91h131v65H63z"/>
    <path d="M68 91h121v40c0 11-9 20-20 20H88c-11 0-20-9-20-20V91Z"/>
  </mask>
  <path d="M68 91h121v40c0 11-9 20-20 20H88c-11 0-20-9-20-20V91Z" fill="#ECECEC"/>
  <path d="M68 91h121H68Zm126 40c0 14-11 25-25 25H88c-14 0-25-11-25-25h10c0 8 7 15 15 15h81c8 0 15-7 15-15h10ZM88 156c-14 0-25-11-25-25V91h10v40c0 8 7 15 15 15v10Zm106-65v40c0 14-11 25-25 25v-10c8 0 15-7 15-15V91h10Z" fill="#2D2D2D" mask="url(#a)"/>
  <path d="M189 130V90a3 3 0 1 0-5 0v44c0 10-3 15-12 17 11-2 14-5 16-14l1-7Zm-121 0V90a3 3 0 1 1 6 0v44c0 10 2 15 11 17-11-2-14-5-16-14l-1-7Z" fill="#A1A1A1"/>
  <path d="M194 89H61l-4-1c-5-4-1-7 2-8s5-3 5-6C75 1 180 2 192 73c1 3 3 5 6 7 4 3 4 8-2 9h-2Z" fill="url(#b)" stroke="#2D2D2D" stroke-width="5"/>
  <path d="M113 134c12 5 18 6 30 0" stroke="#2D2D2D" stroke-width="5" stroke-linecap="round"/>
  <path d="M156 98c7 0 13 6 13 14s-6 14-13 14c-8 0-14-6-14-14s6-14 14-14Z" fill="#2D2D2D" stroke="#EDEDED" stroke-width=".3"/>
  <circle cx="158.5" cy="109.5" r="3.5" fill="#F0EFE6"/>
  <path d="M100 98c7 0 13 6 13 14s-6 14-13 14c-8 0-14-6-14-14s6-14 14-14Z" fill="#2D2D2D" stroke="#EDEDED" stroke-width=".3"/>
  <circle cx="102.5" cy="109.5" r="3.5" fill="#F0EFE6"/>
  <mask id="d" maskUnits="userSpaceOnUse" x="108" y="13" width="41" height="46" fill="#000">
    <path fill="#fff" d="M108 13h41v46h-41z"/>
    <path d="M113 22c0-2 1-4 4-4h23c2 0 4 2 4 4v37h-31V22Z"/>
  </mask>
  <path d="M113 22c0-2 1-4 4-4h23c2 0 4 2 4 4v37h-31V22Z" fill="url(#c)"/>
  <path d="M108 22c0-5 4-9 9-9h23c4 0 9 4 9 9l-10 1h-21l-10-1Zm36 37h-31 31Zm-36 0V22c0-5 4-9 9-9l1 10v36h-10Zm32-46c4 0 9 4 9 9v37h-10V23l1-10Z" fill="#2D2D2D" mask="url(#d)"/>
  <path d="M78 76c39-5 60-6 98 0" stroke="#2D2D2D" stroke-width="5" stroke-linecap="round"/>
  <mask id="e" maskUnits="userSpaceOnUse" x="194" y="95" width="13" height="36" fill="#000">
    <path fill="#fff" d="M194 95h13v36h-13z"/>
    <path d="m194 100 7 1 1 7v10l-1 7-7 1v-26Z"/>
  </mask>
  <path d="m194 100 7 1 1 7v10l-1 7-7 1v-26Z" fill="#ECECEC"/>
  <path d="M194 95h4c5 0 9 4 9 9l-10 1h-3V95Zm13 27c0 5-4 9-9 9h-4v-10h3l10 1Zm-13 4v-26 26Zm4-31c5 0 9 4 9 9v18c0 5-4 9-9 9l-1-10v-16l1-10Z" fill="#2D2D2D" mask="url(#e)"/>
  <mask id="f" maskUnits="userSpaceOnUse" x="50" y="95" width="13" height="36" fill="#000">
    <path fill="#fff" d="M50 95h13v36H50z"/>
    <path d="m63 100-7 1-1 7v10l1 7 7 1v-26Z"/>
  </mask>
  <path d="m63 100-7 1-1 7v10l1 7 7 1v-26Z" fill="#ECECEC"/>
  <path d="M63 95h-4c-5 0-9 4-9 9l10 1h3V95Zm-13 27c0 5 4 9 9 9h4v-10h-3l-10 1Zm13 4v-26 26Zm-4-31c-5 0-9 4-9 9v18c0 5 4 9 9 9l1-10v-16l-1-10Z" fill="#2D2D2D" mask="url(#f)"/>
  <path d="M149 59c0 1-1 3-3 3s-2-2-2-3 0-2 2-2 3 1 3 2Zm-36 0c0 1-1 3-3 3s-2-2-2-3 0-2 2-2 3 1 3 2Z" fill="#2D2D2D"/>
  <path d="M180 159c16 0 28 13 28 29a28 28 0 1 1-56 0c0-16 12-29 28-29Zm-102 0c-16 0-28 13-28 29a28 28 0 1 0 56 0c0-16-12-29-28-29Z" fill="#ECECEC" stroke="#2D2D2D" stroke-width="6"/>
  <rect x="74" y="156" width="107" height="70" rx="12.5" fill="#fff" stroke="#2D2D2D" stroke-width="5"/>
  <path d="M191 185h1c6 1 9 7 9 13 1 5-2 11-9 13h-10c-4-2-6-5-6-9-1-2 0-4 2-5-2-2-2-4-2-6 0-3 2-6 6-6h9Zm-124 0h-1c-6 1-9 7-9 13-1 5 2 11 9 13h10c4-2 6-5 6-9 1-2 0-4-2-5 2-2 2-4 2-6 0-3-2-6-6-6h-9Z" fill="#ECECEC" stroke="#2D2D2D" stroke-width="5"/>
  <path d="m115 181-13 10v1l12 9c-1 5-1 7-4 5l-17-13v-4l20-15c2 2 3 5 2 7Zm24 0 14 10v1l-13 9c1 4 2 7 4 5l17-13c2-1 2-3 0-4l-20-15c-2 2-3 5-2 7Z" fill="#2764FE"/>
  <rect x="132" y="168" width="6" height="46.1" rx="2" transform="rotate(19 132 168)" fill="#2764FE"/>
  <defs>
    <linearGradient id="b" x1="100.5" y1="31.5" x2="187.5" y2="80.5" gradientUnits="userSpaceOnUse">
      <stop stop-color="#2764FE"/>
      <stop offset="1" stop-color="#906EFF"/>
    </linearGradient>
    <linearGradient id="c" x1="128" y1="27.5" x2="128" y2="59" gradientUnits="userSpaceOnUse">
      <stop stop-color="#2A64FE"/>
      <stop offset="1" stop-color="#295299" stop-opacity="0"/>
    </linearGradient>
  </defs>
</svg>